<svg width="22" height="20" viewBox="0 0 22 20" fill="none" xmlns="http://www.w3.org/2000/svg">
<path d="M9.19739 15.0167C11.8754 15.0168 14.0509 17.1645 14.0928 19.8298H0V15.0167H9.19739Z" fill="black"/>
<path d="M21.4468 19.8298H14.2987C14.3407 17.1645 16.5164 15.0167 19.1944 15.0167H20.2553C20.9134 15.0167 21.4468 15.5502 21.4468 16.2082V19.8298Z" fill="black"/>
<path d="M14.2979 7.31916C14.2979 6.99014 14.5655 6.72083 14.8934 6.74787C18.563 7.05052 21.4468 10.1247 21.4468 13.8724C21.4468 14.3919 21.0256 14.8131 20.5061 14.8131H19.1944C16.4902 14.8131 14.2979 12.6231 14.2979 9.92176V7.31916Z" fill="black"/>
<path d="M7.14894 0.170227C10.2363 0.170227 12.8657 2.12739 13.8658 4.86861C14.0449 5.35952 14.094 5.88532 14.094 6.40788V9.92176C14.0939 12.6231 11.9016 14.8131 9.19739 14.8131H0V7.31916C1.15151e-07 3.37091 3.20069 0.170227 7.14894 0.170227Z" fill="black"/>
</svg>
